<?xml version="1.0" encoding="UTF-8" standalone="no"?>
<!DOCTYPE svg PUBLIC "-//W3C//DTD SVG 1.1//EN" "http://www.w3.org/Graphics/SVG/1.1/DTD/svg11.dtd">
<svg width="100%" height="100%" viewBox="0 0 1000 1000" version="1.1" xmlns="http://www.w3.org/2000/svg" xmlns:xlink="http://www.w3.org/1999/xlink" xml:space="preserve" xmlns:serif="http://www.serif.com/" style="fill-rule:evenodd;clip-rule:evenodd;stroke-linejoin:round;stroke-miterlimit:2;">
    <g transform="matrix(2.15147,-1.11022e-16,1.11022e-16,2.15147,-1115.01,-1009.82)">
        <path d="M795.394,473.709C765.847,467.912 735.456,467.912 705.91,473.709L701.309,544.307C678.132,551.571 656.844,563.861 638.965,580.302L575.525,548.987C555.731,571.676 540.536,597.996 530.783,626.482L589.622,665.766C584.324,689.47 584.324,714.051 589.622,737.754L530.783,777.038C540.536,805.524 555.731,831.844 575.525,854.533L638.965,823.219C656.844,839.659 678.132,851.95 701.309,859.213L705.91,929.811C735.456,935.608 765.847,935.608 795.394,929.811L799.995,859.213C823.172,851.95 844.46,839.659 862.339,823.219L925.779,854.533C945.573,831.844 960.768,805.524 970.521,777.038L911.681,737.754C916.98,714.051 916.98,689.47 911.681,665.766L970.521,626.482C960.768,597.996 945.573,571.676 925.779,548.987L862.339,580.302C844.46,563.861 823.172,551.571 799.995,544.307L795.394,473.709ZM750.652,620.42C795.544,620.42 831.992,656.868 831.992,701.76C831.992,746.653 795.544,783.1 750.652,783.1C705.759,783.1 669.312,746.653 669.312,701.76C669.312,656.868 705.759,620.42 750.652,620.42Z"/>
    </g>
</svg>
