<?xml version="1.0" encoding="UTF-8" standalone="no"?>
<!DOCTYPE svg PUBLIC "-//W3C//DTD SVG 1.1//EN" "http://www.w3.org/Graphics/SVG/1.1/DTD/svg11.dtd">
<svg width="100%" height="100%" viewBox="0 0 1762 2912" version="1.1" xmlns="http://www.w3.org/2000/svg" xmlns:xlink="http://www.w3.org/1999/xlink" xml:space="preserve" xmlns:serif="http://www.serif.com/" style="fill-rule:evenodd;clip-rule:evenodd;stroke-linejoin:round;stroke-miterlimit:2;">
    <g transform="matrix(1,0,0,1,-3215.88,-4844.38)">
        <g transform="matrix(6.12323e-17,-1,0.830354,5.08445e-17,873.847,10918.8)">
            <path d="M4706.98,2868.76C4684.65,2838.11 4652.44,2820.53 4618.57,2820.53C4584.72,2820.53 4552.5,2838.11 4530.18,2868.76L3191.87,4706.71C3161.44,4748.5 3154.12,4807.87 3173.18,4858.5C3192.22,4909.13 3234.11,4941.66 3280.27,4941.66L5956.88,4941.66C6003.04,4941.66 6044.93,4909.13 6063.98,4858.5C6083.03,4807.87 6075.71,4748.5 6045.28,4706.71L4706.98,2868.76Z"/>
        </g>
    </g>
</svg>
