<?xml version="1.0" standalone="no"?>
<!DOCTYPE svg PUBLIC "-//W3C//DTD SVG 20010904//EN"
 "http://www.w3.org/TR/2001/REC-SVG-20010904/DTD/svg10.dtd">
<svg version="1.0" xmlns="http://www.w3.org/2000/svg"
 width="1000.000000pt" height="1000.000000pt" viewBox="0 0 1000.000000 1000.000000"
 preserveAspectRatio="xMidYMid meet">
<metadata>
Created by potrace 1.14, written by Peter Selinger 2001-2017
</metadata>
<g transform="translate(0.000000,1000.000000) scale(0.100000,-0.100000)"
fill="#000000" stroke="none">
<path d="M2990 8326 c-548 -70 -977 -273 -1334 -631 -448 -451 -669 -1059
-643 -1770 24 -640 230 -1133 642 -1540 185 -182 361 -308 590 -421 231 -113
465 -183 745 -220 147 -20 523 -22 695 -5 318 33 575 103 763 207 l62 35 0
499 c0 275 -3 500 -8 500 -4 0 -32 -17 -62 -37 -85 -57 -255 -139 -370 -177
-338 -112 -762 -128 -1068 -40 -294 85 -550 284 -706 547 -136 230 -200 546
-176 877 26 368 138 643 354 869 284 296 626 417 1075 382 316 -25 546 -87
815 -222 76 -38 140 -69 142 -69 3 0 3 221 2 492 l-3 492 -93 47 c-153 78
-343 135 -573 170 -173 27 -683 36 -849 15z"/>
<path d="M5433 8283 l-163 -3 0 -2250 0 -2250 515 0 515 0 2 898 3 897 823 3
822 2 0 -900 0 -900 520 0 520 0 0 2248 0 2249 -254 7 c-139 3 -371 3 -514 0
l-259 -7 -7 -60 c-3 -33 -6 -444 -6 -913 l0 -854 -825 0 -825 0 0 913 0 914
-247 6 c-137 4 -295 6 -353 5 -58 -1 -178 -4 -267 -5z"/>
<path d="M1010 2170 l0 -510 3990 0 3990 0 0 510 0 510 -3990 0 -3990 0 0
-510z"/>
</g>
</svg>
